<?xml version="1.0" standalone="no"?>
<!DOCTYPE svg PUBLIC "-//W3C//DTD SVG 20010904//EN"
 "http://www.w3.org/TR/2001/REC-SVG-20010904/DTD/svg10.dtd">
<svg version="1.0" xmlns="http://www.w3.org/2000/svg"
 width="70.000000pt" height="70.000000pt" viewBox="0 0 70.000000 70.000000"
 preserveAspectRatio="xMidYMid meet">
<metadata>
Created by potrace 1.14, written by Peter Selinger 2001-2017
</metadata>
<g transform="translate(0.000000,70.000000) scale(0.100000,-0.100000)"
fill="#000000" stroke="none">
<path d="M2 613 l3 -88 40 0 c39 1 40 1 41 38 1 21 3 39 5 41 2 2 22 6 44 8
39 4 40 5 40 43 l0 40 -88 3 -88 3 3 -88z"/>
<path d="M527 693 c-3 -7 -2 -54 2 -75 0 -4 20 -8 44 -10 l42 -3 -3 -37 c-2
-21 0 -39 5 -39 4 -1 25 -2 46 -3 l37 -2 0 88 0 88 -84 0 c-47 0 -87 -3 -89
-7z"/>
<path d="M171 563 c5 -31 -2 -44 -21 -38 -20 6 -20 3 -18 -172 3 -163 4 -178
21 -175 16 3 21 -8 18 -36 -2 -10 36 -12 176 -10 133 2 178 6 179 16 3 29 4
32 12 31 31 -5 32 1 30 174 -2 129 -6 172 -15 173 -30 3 -33 4 -32 12 5 31 -2
32 -176 32 -96 0 -174 -3 -174 -7z"/>
<path d="M0 87 l0 -88 88 3 87 3 1 32 c1 45 -5 51 -51 55 l-40 3 3 40 3 41
-45 0 -46 0 0 -89z"/>
<path d="M615 171 c-3 -2 -5 -21 -5 -42 0 -37 -1 -38 -42 -41 -43 -3 -43 -3
-43 -43 l0 -40 88 -3 87 -3 0 88 0 88 -40 0 c-23 1 -43 -1 -45 -4z"/>
</g>
</svg>
