<?xml version="1.0" standalone="no"?>
<!DOCTYPE svg PUBLIC "-//W3C//DTD SVG 20010904//EN"
 "http://www.w3.org/TR/2001/REC-SVG-20010904/DTD/svg10.dtd">
<svg version="1.0" xmlns="http://www.w3.org/2000/svg"
 width="70.000000pt" height="70.000000pt" viewBox="0 0 70.000000 70.000000"
 preserveAspectRatio="xMidYMid meet">
<metadata>
Created by potrace 1.14, written by Peter Selinger 2001-2017
</metadata>
<g transform="translate(0.000000,70.000000) scale(0.100000,-0.100000)"
fill="#000000" stroke="none">
<path d="M0 350 l0 -350 350 0 350 0 0 350 0 350 -350 0 -350 0 0 -350z m610
195 l0 -66 -62 3 -63 3 -3 63 -3 62 66 0 65 0 0 -65z m-170 -195 l0 -90 -90 0
-90 0 0 90 0 90 90 0 90 0 0 -90z m170 0 l0 -90 -65 0 -65 0 0 90 0 90 65 0
65 0 0 -90z m-390 -195 l0 -65 -65 0 -65 0 0 65 0 65 65 0 65 0 0 -65z m220 0
l0 -65 -90 0 -90 0 0 65 0 65 90 0 90 0 0 -65z"/>
</g>
</svg>
